<?xml version="1.0" encoding="iso-8859-1"?>
<!-- Uploaded to: SVG Repo, www.svgrepo.com, Generator: SVG Repo Mixer Tools -->
<!DOCTYPE svg PUBLIC "-//W3C//DTD SVG 1.1//EN" "http://www.w3.org/Graphics/SVG/1.1/DTD/svg11.dtd">
<svg fill="#000000" height="800px" width="800px" version="1.1" id="Capa_1" xmlns="http://www.w3.org/2000/svg" xmlns:xlink="http://www.w3.org/1999/xlink" 
	 viewBox="0 0 452.583 452.583" xml:space="preserve">
<g>
	<path d="M414.805,310.083c-0.999-1.406-2.516-2.356-4.217-2.643c-9.22-1.556-18.554-2.345-27.74-2.345
		c-13.698,0-27.285,1.712-40.522,5.089c2.417-22.73,0.036-46.021-7.013-67.948c-1.099-3.417-4.76-5.295-8.178-4.199
		c-19.063,6.127-36.472,15.416-51.905,27.648c-5.694-9.931-12.769-19.281-21.242-27.755l-23.1-23.1
		c-1.22-1.219-2.873-1.904-4.597-1.904s-3.377,0.685-4.596,1.904l-23.102,23.1c-8.474,8.474-15.548,17.823-21.242,27.754
		c-15.431-12.228-32.843-21.517-51.914-27.646c-1.643-0.527-3.426-0.381-4.96,0.407c-1.533,0.788-2.691,2.153-3.218,3.795
		c-7.04,21.926-9.419,45.216-7.01,67.945c-13.236-3.376-26.822-5.087-40.518-5.087c-9.188,0-18.521,0.789-27.739,2.345
		c-1.701,0.287-3.218,1.238-4.217,2.643s-1.398,3.15-1.111,4.851c13.624,80.513,83.696,137.628,162.769,137.625
		c8.86,0,17.837-0.724,26.856-2.206c9.056,1.489,18.116,2.23,27.117,2.23c33.979,0,67.059-10.489,95.319-30.569
		c35.967-25.554,59.827-63.583,67.188-107.081C416.204,313.233,415.804,311.488,414.805,310.083z M324.83,252.58
		c5.845,21.349,6.989,43.86,3.289,65.519c-7.627,44.943-34.468,83.184-72.618,105.661c38.598-39.865,47.178-98.171,25.742-146.24
		C294.264,266.826,308.876,258.464,324.83,252.58z M207.787,247.121l18.505-18.504l18.504,18.504
		c46.593,46.593,46.593,122.405,0,168.999l-18.504,18.503l-18.504-18.503C161.194,369.526,161.194,293.714,207.787,247.121z
		 M127.747,252.581c15.961,5.885,30.575,14.247,43.593,24.937c-21.438,48.07-12.856,106.38,25.745,146.245
		c-38.148-22.476-64.994-60.721-72.63-105.669C120.765,296.44,121.911,273.929,127.747,252.581z M50.734,319.292
		c20.94-2.622,41.765-0.902,61.651,4.955c9.782,50.242,41.776,92.362,86.421,115.309C128.384,439.257,65.821,389.792,50.734,319.292
		z M341.199,411.417c-25.942,18.431-56.288,28.088-87.47,28.16c44.675-22.942,76.687-65.074,86.461-115.329
		c19.889-5.859,40.718-7.58,61.66-4.956C393.88,356.636,372.522,389.162,341.199,411.417z"/>
	<path d="M167.692,180.011c6.684,3.708,14.026,5.593,21.451,5.593c4.222,0,8.47-0.61,12.638-1.841
		c11.498-3.396,20.938-11.092,26.58-21.671c6.184-11.594,6.319-24.964,0.375-36.683c-1.468-2.893-3.239-5.542-5.265-7.926
		c8.706-3.032,16.479-8.586,22.125-16.074l16.796-22.277c4.773-6.331,12.05-9.732,19.971-9.338
		c7.919,0.396,14.822,4.51,18.933,11.276l0.1,0.163c13.484,22.193,10.665,51.081-6.855,70.249
		c-4.94,5.404-11.971,8.164-19.256,7.582c-7.299-0.586-13.787-4.435-17.802-10.558l-8.619-13.147
		c-1.968-3.003-5.998-3.841-8.999-1.873c-3.002,1.968-3.841,5.998-1.872,9l8.619,13.147c6.231,9.506,16.303,15.479,27.632,16.389
		c1.001,0.081,1.997,0.12,2.989,0.12c10.239,0,19.912-4.241,26.903-11.889c21.392-23.402,24.833-58.672,8.376-85.759l-0.1-0.164
		c-6.297-10.364-17.287-16.913-29.399-17.519c-12.098-0.61-23.701,4.813-31.001,14.496l-16.796,22.277
		c-6.101,8.094-15.639,13.056-25.73,13.476c-2.906-1.279-5.993-2.228-9.226-2.798l14.171-11.699
		c6.119-5.052,9.813-12.193,10.403-20.107c0.589-7.914-2.008-15.522-7.312-21.425c-5.346-5.95-12.694-9.344-20.689-9.558
		c-7.99-0.211-15.516,2.784-21.173,8.44l-21.74,21.741c-2.538,2.539-2.538,6.654,0.001,9.192c2.537,2.538,6.653,2.538,9.192,0
		l21.739-21.741c3.108-3.108,7.244-4.751,11.633-4.637c4.393,0.117,8.43,1.982,11.367,5.251c2.914,3.243,4.341,7.423,4.017,11.771
		c-0.323,4.348-2.354,8.271-5.716,11.047l-25.493,21.047c-1.984,1.639-2.815,4.294-2.118,6.772c0.696,2.478,2.79,4.311,5.338,4.675
		l13.197,1.885c8.752,1.25,16.066,6.49,20.066,14.375c4,7.885,3.908,16.882-0.253,24.685c-3.988,7.479-10.661,12.919-18.79,15.32
		c-8.13,2.402-16.69,1.459-24.102-2.653c-19.83-11-31.842-31.918-31.35-54.589l0.127-5.821c0.079-3.589-2.768-6.562-6.356-6.64
		c-0.048-0.001-0.096-0.001-0.145-0.001c-3.523,0-6.418,2.818-6.495,6.358l-0.127,5.822
		C129.053,141.28,143.63,166.662,167.692,180.011z"/>
	<path d="M211.933,33.272c7.101,8.193,16.976,12.961,27.808,13.426c0.579,0.025,1.155,0.038,1.731,0.038
		c10.188,0,19.764-3.881,27.124-11.031l10.696-10.39c2.574-2.501,2.635-6.617,0.133-9.191c-2.501-2.575-6.615-2.635-9.191-0.134
		L259.538,26.38c-5.186,5.037-12.033,7.646-19.239,7.33c-7.223-0.31-13.807-3.489-18.541-8.952l-10.314-11.901
		c-2.351-2.713-6.457-3.006-9.169-0.655c-2.713,2.351-3.006,6.457-0.655,9.169L211.933,33.272z"/>
	<path d="M240.647,21.086c5.813,0,10.543-4.729,10.543-10.543S246.461,0,240.647,0s-10.544,4.73-10.544,10.543
		S234.834,21.086,240.647,21.086z M240.647,8.086c1.354,0,2.456,1.102,2.456,2.457c0,1.354-1.102,2.457-2.456,2.457
		s-2.457-1.102-2.457-2.457C238.19,9.188,239.293,8.086,240.647,8.086z"/>
</g>
</svg>